<svg width="180" height="96" viewBox="0 0 180 96" fill="none" xmlns="http://www.w3.org/2000/svg">
<path d="M2.84137 51.8724C1.15431 50.6269 0.177586 48.9365 0 46.8013C1.95344 45.6448 3.7293 44.2213 5.41636 42.5309V13.2608C5.41636 8.99042 6.30429 5.69865 8.16894 3.38551C9.94479 1.07237 12.6086 -0.0841967 16.0715 0.00477014C19.268 0.00477014 21.6654 1.25031 23.4413 3.56344C25.2172 5.87658 26.1051 8.99042 26.1051 12.727C26.1051 16.0188 25.6611 19.4885 24.6844 23.0472C23.7077 26.6059 22.287 30.0756 20.2448 33.5453C20.5999 33.5453 21.0439 33.4563 21.3991 33.4563C24.5956 33.4563 27.1706 34.6129 29.0352 36.837C30.8999 39.0612 31.8766 42.1751 31.8766 45.9117V51.4276C31.8766 53.9187 32.143 55.698 32.7645 56.7656C33.3861 57.8332 34.4516 58.456 35.8723 58.456C36.5826 58.456 37.0266 58.7229 37.3818 59.2567C37.6481 59.7905 37.8257 60.5022 37.8257 61.3029C37.8257 62.1036 37.6481 62.7264 37.2042 63.2602C36.7602 63.794 36.2275 64.0609 35.5171 64.0609C32.4094 64.0609 30.1008 63.0823 28.4137 61.125C26.8154 59.1677 25.9275 56.3208 25.9275 52.6731V45.9117C25.9275 43.7765 25.4835 41.9971 24.5068 40.8406C23.5301 39.595 22.1982 38.9723 20.4223 38.9723C18.7353 38.9723 17.2258 39.5061 15.8051 40.6626C14.4732 41.8192 13.3189 43.3316 12.5198 45.2889C11.7206 47.2462 11.2767 49.5593 11.2767 52.0504V63.1712C10.8327 63.2602 10.3888 63.4381 9.856 63.5271C9.32324 63.6161 8.87928 63.6161 8.34652 63.6161C7.3698 63.6161 6.39308 63.4381 5.32757 63.1712V50.0931C4.43964 50.8938 3.55171 51.5166 2.84137 51.8724ZM11.0991 13.1719V38.0826C14.1181 33.6342 16.4267 29.2749 18.0249 24.9155C19.6232 20.5561 20.4223 16.4636 20.4223 12.6381C20.4223 10.236 20.0672 8.45662 19.268 7.12212C18.3801 5.96555 17.3146 5.34278 15.8051 5.34278C12.6974 5.34278 11.0991 7.92282 11.0991 13.1719Z" fill="#65352A"/>
<path d="M35.9611 58.545C37.3818 58.545 38.8024 57.8332 40.2231 56.4098C41.6438 54.9863 42.7981 53.029 43.6861 50.6269C43.6861 50.0041 43.5973 49.4703 43.5973 48.8476C43.5973 45.6448 44.2188 42.7089 45.5507 40.2178C46.7938 37.7267 48.5697 35.6805 50.7895 34.257C53.0093 32.8335 55.4955 32.1218 58.3369 32.1218C59.8463 32.1218 61.267 32.3887 62.7765 33.0115C64.1972 33.5453 65.4403 34.346 66.417 35.3246V32.6556C66.7722 32.5666 67.2161 32.3887 67.7489 32.2997C68.2817 32.2108 68.8144 32.2108 69.3472 32.2108C70.4127 32.2108 71.3006 32.3887 72.1885 32.6556V51.4276C72.1885 53.6518 72.5437 55.4311 73.2541 56.6767C73.9644 57.9222 75.1187 58.545 76.8058 58.545C77.5161 58.545 78.0489 58.8119 78.3152 59.4346C78.5816 60.0574 78.6704 60.6802 78.6704 61.3919C78.6704 62.1036 78.4928 62.7264 78.1377 63.2602C77.7825 63.794 77.1609 64.0609 76.3618 64.0609C72.1885 64.0609 69.436 62.1926 68.0153 58.456C66.7722 60.2353 65.2627 61.5698 63.3981 62.5485C61.5334 63.5271 59.4912 64.0609 57.2714 64.0609C54.7852 64.0609 52.6541 63.5271 50.7007 62.4595C48.836 61.3919 47.2378 59.8795 46.0835 57.9222C43.4197 62.0147 39.9568 64.0609 35.6947 64.0609C35.1619 64.0609 34.718 63.794 34.3628 63.2602C34.0076 62.7264 33.8301 62.1036 33.8301 61.3029C33.6525 59.4346 34.3628 58.545 35.9611 58.545ZM49.5464 48.8476C49.5464 51.8724 50.2567 54.2745 51.5886 55.9649C53.0093 57.6553 54.8739 58.545 57.2714 58.545C59.9351 58.545 62.155 57.6553 63.7532 55.787C65.3515 53.9187 66.2394 51.5166 66.2394 48.5807V41.3744C65.3515 40.2178 64.286 39.3281 62.9541 38.6164C61.6222 37.9046 60.2903 37.5488 58.8696 37.5488C57.005 37.5488 55.4067 38.0826 53.986 39.0612C52.5653 40.0398 51.4998 41.3744 50.7007 43.0647C49.9903 44.6661 49.5464 46.6234 49.5464 48.8476Z" fill="#65352A"/>
<path d="M76.717 58.545C77.6049 58.545 78.5816 58.2781 79.5583 57.7443C80.6239 57.2105 81.5118 56.3208 82.3997 55.1642C83.6428 53.4739 84.5307 51.4276 84.9747 49.1145C85.5075 46.8013 85.685 44.5772 85.685 42.353V32.9225C86.0402 32.8335 86.4842 32.6556 87.0169 32.5666C87.5497 32.4777 88.0825 32.4777 88.6152 32.4777C89.5919 32.4777 90.5686 32.6556 91.4566 32.9225V47.691C91.4566 54.8084 94.0316 58.367 99.1815 58.367C102.201 58.367 104.42 57.1215 105.841 54.7194C107.262 52.2283 107.972 48.9365 107.972 44.6661V32.9225C108.86 32.6556 109.837 32.4777 110.813 32.4777C111.879 32.4777 112.856 32.6556 113.744 32.9225V81.0536C113.744 91.0179 110.103 96 102.822 96C99.4479 96 96.7841 95.0214 94.9195 92.9751C93.0548 90.9289 92.0781 88.1709 92.0781 84.7012C92.0781 76.8721 97.4057 69.5769 108.061 62.7264V59.7015C105.663 62.5485 102.378 63.9719 98.3824 63.9719C92.9661 63.9719 89.2368 61.6588 87.1945 57.1215C86.4842 58.367 85.7738 59.3457 84.9747 60.2353C83.8204 61.3919 82.4885 62.2816 80.979 62.9933C79.4695 63.705 77.8713 64.0609 76.0954 64.0609C75.4739 64.0609 75.0299 63.794 74.7635 63.1712C74.4972 62.5485 74.3196 61.9257 74.3196 61.3029C74.3196 60.5912 74.4972 59.9684 74.8523 59.3457C75.2963 58.8119 75.9178 58.545 76.717 58.545ZM98.0272 84.7012C98.0272 86.5695 98.4712 87.993 99.2703 89.0606C100.158 90.1282 101.313 90.662 102.822 90.662C106.463 90.662 108.238 87.4592 108.238 81.1425V69.6658C101.49 74.47 98.0272 79.4522 98.0272 84.7012Z" fill="#65352A"/>
<path d="M114.454 66.1961C113.832 66.7299 113.3 66.9968 112.767 66.9968C112.057 66.9968 111.346 66.6409 110.813 65.8402C110.192 65.1285 109.925 64.4168 109.925 63.705C109.925 63.2602 110.014 62.9043 110.192 62.6374C110.369 62.3705 110.636 62.1036 111.08 61.8367L123.067 52.7621C122.8 51.5166 122.712 50.0931 122.712 48.7586C122.712 45.5558 123.333 42.6199 124.665 40.1288C125.908 37.6377 127.684 35.5915 129.904 34.168C132.124 32.7446 134.61 32.0328 137.451 32.0328C138.961 32.0328 140.381 32.2997 141.891 32.9225C143.312 33.4563 144.555 34.257 145.531 35.2356V32.5666C145.887 32.4777 146.331 32.2997 146.863 32.2108C147.396 32.1218 147.929 32.1218 148.462 32.1218C149.527 32.1218 150.415 32.2997 151.303 32.5666V51.8724C151.303 54.1856 151.569 55.876 152.191 56.9436C152.812 58.0112 153.789 58.456 155.121 58.456C155.743 58.456 156.187 58.7229 156.453 59.2567C156.808 59.7905 156.897 60.4133 156.897 61.3029C156.897 62.0147 156.719 62.6374 156.364 63.1712C156.009 63.705 155.387 63.9719 154.588 63.9719C150.504 63.9719 147.84 62.2816 146.419 58.9898C145.176 60.5912 143.667 61.8367 141.98 62.6374C140.204 63.5271 138.25 63.9719 136.119 63.9719C133.722 63.9719 131.591 63.4381 129.726 62.4595C127.862 61.3919 126.352 59.9684 125.109 58.1891L114.454 66.1961ZM128.661 48.8476C128.661 51.8724 129.371 54.2745 130.703 55.9649C132.124 57.6553 133.988 58.545 136.386 58.545C139.05 58.545 141.269 57.6553 142.868 55.787C144.466 53.9187 145.354 51.5166 145.354 48.5807V41.3744C144.466 40.2178 143.4 39.3281 142.068 38.6164C140.737 37.9047 139.405 37.5488 137.984 37.5488C136.119 37.5488 134.521 38.0826 133.1 39.0612C131.68 40.0399 130.614 41.3744 129.815 43.0647C129.016 44.6661 128.661 46.6234 128.661 48.8476Z" fill="#65352A"/>
<path d="M155.121 58.545C156.009 58.545 156.986 58.2781 157.962 57.7443C159.028 57.2105 159.916 56.3208 160.804 55.1642C161.869 53.7408 162.668 52.0504 163.112 50.1821C163.645 48.3138 163.911 46.4455 164 44.4882V32.9225C164.355 32.8335 164.799 32.6556 165.332 32.5666C165.865 32.4777 166.398 32.4777 166.93 32.4777C167.907 32.4777 168.884 32.6556 169.772 32.9225V51.3386C169.772 53.5628 170.127 55.3422 170.837 56.5877C171.548 57.8332 172.702 58.456 174.389 58.456C174.833 58.456 175.366 58.367 175.899 58.1001C176.431 57.9222 177.053 57.5663 177.586 57.1215C178.296 57.4774 178.917 58.0112 179.361 58.9008C179.805 59.7015 180.072 60.5912 179.983 61.3919C179.273 62.1926 178.385 62.8154 177.319 63.2602C176.254 63.705 175.099 63.9719 173.856 63.9719H173.767C169.328 63.9719 166.486 61.8367 165.155 57.6553C164.533 58.6339 163.911 59.4346 163.201 60.1464C162.047 61.3029 160.715 62.1926 159.205 62.9043C157.696 63.6161 156.098 63.9719 154.322 63.9719C153.7 63.9719 153.256 63.705 152.99 63.0823C152.724 62.4595 152.546 61.8367 152.546 61.214C152.546 60.5022 152.724 59.8795 153.079 59.2567C153.7 58.8119 154.322 58.545 155.121 58.545ZM167.108 23.67C165.954 23.67 164.888 23.2251 164 22.4244C163.112 21.5348 162.757 20.5561 162.757 19.3106C162.757 18.065 163.201 16.9974 164 16.1967C164.799 15.396 165.865 14.9512 167.108 14.9512C168.351 14.9512 169.417 15.396 170.216 16.1967C171.015 16.9974 171.459 18.065 171.459 19.3106C171.459 20.5561 171.015 21.6237 170.216 22.4244C169.417 23.2251 168.351 23.67 167.108 23.67Z" fill="#65352A"/>
</svg>
